HIERARCHY
ROOT Hips
{
	OFFSET 0.00000 0.00000 0.00000
	CHANNELS 6 Xposition Yposition Zposition Zrotation Yrotation Xrotation 
	JOINT LHipJoint
	{
		OFFSET 0 0 0
		CHANNELS 3 Zrotation Yrotation Xrotation
		JOINT LeftHip
		{
			OFFSET 1.52977 -1.71332 0.88991
			CHANNELS 3 Zrotation Yrotation Xrotation
			JOINT LeftKnee
			{
				OFFSET 2.23949 -6.15296 0.00000
				CHANNELS 3 Zrotation Yrotation Xrotation
				JOINT LeftAnkle
				{
					OFFSET 2.68396 -7.37412 0.00000
					CHANNELS 3 Zrotation Yrotation Xrotation
					JOINT LeftToe
					{
						OFFSET 0.20538 -0.56428 2.52710
						CHANNELS 3 Zrotation Yrotation Xrotation
						End Site
						{
							OFFSET 0.00000 -0.00000 1.29919
						}
					}
				}
			}
		}
	}
	JOINT RHipJoint
	{
		OFFSET 0 0 0
		CHANNELS 3 Zrotation Yrotation Xrotation
		JOINT RightHip
		{
			OFFSET -1.45689 -1.71333 0.88991
			CHANNELS 3 Zrotation Yrotation Xrotation
			JOINT RightKnee
			{
				OFFSET -2.36700 -6.50329 0.00000
				CHANNELS 3 Zrotation Yrotation Xrotation
				JOINT RightAnkle
				{
					OFFSET -2.69814 -7.41308 0.00000
					CHANNELS 3 Zrotation Yrotation Xrotation
					JOINT RightToe
					{
						OFFSET -0.18734 -0.51471 2.37479
						CHANNELS 3 Zrotation Yrotation Xrotation
						End Site
						{
							OFFSET -0.00000 -0.00000 1.22113
						}
					}
				}
			}
		}
	}
	JOINT lowerback
	{
		OFFSET 0 0 0
		CHANNELS 3 Zrotation Yrotation Xrotation
		JOINT Chest
		{
			OFFSET 0.04294 2.14638 -0.31163
			CHANNELS 3 Zrotation Yrotation Xrotation
			JOINT Chest2
			{
				OFFSET -0.00400 2.17216 0.01486
				CHANNELS 3 Zrotation Yrotation Xrotation
				JOINT lowerneck
				{
					OFFSET 0 0 0
					CHANNELS 3 Zrotation Yrotation Xrotation
					JOINT Neck
					{
						OFFSET 0.03869 1.76598 0.14916
						CHANNELS 3 Zrotation Yrotation Xrotation
						JOINT Head
						{
							OFFSET -0.00760 1.75513 -0.18948
							CHANNELS 3 Zrotation Yrotation Xrotation
							End Site
							{
								OFFSET -0.00601 1.82444 -0.08310
							}
						}
					}
				}
				JOINT LeftCollar
				{
					OFFSET 0 0 0
					CHANNELS 3 Zrotation Yrotation Xrotation
					JOINT LeftShoulder
					{
						OFFSET 3.73696 0.92058 0.01733
CHANNELS 3 Zrotation Xrotation Yrotation
						JOINT LeftElbow
						{
OFFSET 0 -5.227710 0.000000
CHANNELS 3 Zrotation Xrotation Yrotation
							JOINT LeftWrist
							{
OFFSET 0 -3.452510 0.000000
CHANNELS 3 Zrotation Xrotation Yrotation
								JOINT lhand
								{
									OFFSET 0 0 0
CHANNELS 3 Zrotation Xrotation Yrotation
									JOINT LFingers
									{
OFFSET 0 -0.552120 0.000000
CHANNELS 3 Zrotation Xrotation Yrotation
										End Site
										{
OFFSET 0 -0.445130 0.000000
										}
									}
								}
								JOINT LThumb
								{
OFFSET 0 0.000000 0.000000
CHANNELS 3 Zrotation Xrotation Yrotation
									End Site
									{
OFFSET 0 -0.451930 0.451930
									}
								}
							}
						}
					}
				}
				JOINT RightCollar
				{
					OFFSET 0 0 0
					CHANNELS 3 Zrotation Yrotation Xrotation
					JOINT RightShoulder
					{
						OFFSET -3.63819 0.83094 -0.13694
CHANNELS 3 Zrotation Xrotation Yrotation
						JOINT RightElbow
						{
OFFSET 0 -5.239800 -0.000000
CHANNELS 3 Zrotation Xrotation Yrotation
							JOINT RightWrist
							{
OFFSET 0 -3.480420 -0.000000
CHANNELS 3 Zrotation Xrotation Yrotation
								JOINT rhand
								{
									OFFSET 0 0 0
CHANNELS 3 Zrotation Xrotation Yrotation
									JOINT RFingers
									{
OFFSET 0 -0.618710 0.000000
CHANNELS 3 Zrotation Xrotation Yrotation
										End Site
										{
OFFSET 0 -0.498820 0.000000
										}
									}
								}
								JOINT RThumb
								{
OFFSET 0 0.000000 0.000000
CHANNELS 3 Zrotation Xrotation Yrotation
									End Site
									{
OFFSET 0 -0.506440 0.506440
									}
								}
							}
						}
					}
				}
			}
		}
	}
}
MOTION
Frames: 5
Frame Time: 0.008333333333333333
-39.021600 17.025000 -5.949600 -55.642700 86.152800 -57.038500 0.000000 0.000000 0.000000 -17.038100 5.338800 -2.554600 1.098400 6.659800 18.711400 0.795100 2.974800 -18.174900 0.098000 -2.018600 -5.557100 0.000000 0.000000 0.000000 23.100000 7.561300 -6.454400 -3.277200 -11.130900 32.722500 -1.995300 -4.493600 -28.594800 -0.171500 -2.667500 7.354400 2.561200 -0.495300 0.320100 0.264900 -0.667800 1.984000 -1.171500 -0.287100 1.828500 2.064300 0.192500 -8.629700 1.315700 -0.120700 9.121500 0.069100 0.098700 4.587900 0.000000 -0.000000 0.000000 1.827600 1.125500 -26.362600 12.448700 -20.474100 2.256800 17.390100 -11.487800 -12.241100 0.000000 0.000000 0.000000 -7.125000 0.000000 0.000000 -8.887000 42.615700 -0.527400 0.000000 -0.000000 0.000000 -0.157100 1.255600 22.276900 -13.756200 -22.385000 -2.734600 -19.059200 4.391500 7.157900 0.000000 0.000000 0.000000 7.125000 0.000000 -0.000000 6.586800 37.475100 1.226300
-39.022083 17.025193 -5.948604 -56.502664 86.134742 -57.878311 0.000000 0.000000 0.000000 -16.984008 5.290543 -2.607766 1.104193 6.676700 18.761120 0.796627 2.971904 -18.189464 0.099152 -2.030233 -5.589181 0.000000 0.000000 0.000000 23.153679 7.553837 -6.473904 -3.274004 -11.125945 32.705738 -1.995366 -4.505992 -28.601095 -0.176586 -2.706946 7.463847 2.603653 -0.496392 0.346304 0.278571 -0.668575 1.956170 -1.180869 -0.287827 1.784932 2.090634 0.197426 -8.617660 1.274622 -0.112978 9.133465 0.050911 0.101340 4.589788 0.000000 0.000000 0.000000 1.815866 1.119016 -26.427928 12.456611 -20.485910 2.259561 17.440474 -11.515128 -12.140039 0.000000 0.000000 0.000000 -7.125000 0.000000 0.000000 -8.821316 42.516820 -0.545089 0.000000 0.000000 0.000000 -0.157578 1.311194 22.347656 -13.790477 -22.434435 -2.747685 -19.061007 4.422861 7.322556 0.000000 0.000000 0.000000 7.125000 0.000000 0.000000 6.606718 37.647838 1.201976
-39.020490 17.025100 -5.947448 -56.567351 86.146200 -57.951589 0.000000 0.000000 0.000000 -16.992298 5.259735 -2.588084 1.106410 6.683189 18.780192 0.795917 2.998081 -18.196364 0.101417 -2.053420 -5.653327 0.000000 0.000000 0.000000 23.149464 7.529437 -6.468141 -3.273800 -11.125700 32.704900 -1.991680 -4.531356 -28.589566 -0.170562 -2.660834 7.335884 2.587941 -0.490076 0.359983 0.275703 -0.659473 1.948261 -1.174759 -0.283762 1.769600 2.112680 0.198220 -8.609085 1.267357 -0.113780 9.146185 0.044480 0.101569 4.592666 0.000000 0.000000 0.000000 1.818934 1.117555 -26.532574 12.476171 -20.514839 2.266382 17.426800 -11.558480 -12.149044 0.000000 0.000000 0.000000 -7.125000 0.000000 0.000000 -8.835251 42.524696 -0.544190 0.000000 0.000000 0.000000 -0.154842 1.350554 22.390781 -13.802410 -22.451570 -2.752192 -19.047712 4.385838 7.296306 0.000000 0.000000 0.000000 7.125000 0.000000 0.000000 6.614495 37.619430 1.208052
-39.019097 17.025024 -5.946611 -56.822350 86.145514 -58.211825 0.000000 0.000000 0.000000 -16.981174 5.235432 -2.572475 1.107417 6.686113 18.788662 0.796727 3.007060 -18.209352 0.101224 -2.051766 -5.648626 0.000000 0.000000 0.000000 23.162819 7.509459 -6.466953 -3.274976 -11.127352 32.710655 -1.990135 -4.544571 -28.586253 -0.168083 -2.641379 7.281894 2.591962 -0.484574 0.384043 0.277789 -0.651329 1.933192 -1.174397 -0.280166 1.740961 2.131335 0.198659 -8.592692 1.258128 -0.113982 9.152310 0.037990 0.101773 4.591597 0.000000 0.000000 0.000000 1.819976 1.114260 -26.626598 12.486472 -20.530151 2.270003 17.421589 -11.568075 -12.201037 0.000000 0.000000 0.000000 -7.125000 0.000000 0.000000 -8.850737 42.577724 -0.533546 0.000000 0.000000 0.000000 -0.146485 1.401547 22.418453 -13.822029 -22.479703 -2.759661 -19.040914 4.357512 7.278321 0.000000 0.000000 0.000000 7.125000 0.000000 0.000000 6.617901 37.600080 1.211799
-39.017814 17.024800 -5.945680 -57.050068 86.139961 -58.441350 0.000000 0.000000 0.000000 -16.965196 5.212811 -2.569216 1.109658 6.692657 18.808018 0.798203 3.010294 -18.225983 0.100297 -2.042551 -5.623211 0.000000 0.000000 0.000000 23.181193 7.497008 -6.463188 -3.275066 -11.127548 32.711211 -1.989586 -4.552957 -28.586894 -0.167234 -2.634758 7.263588 2.595658 -0.479397 0.403536 0.282729 -0.643745 1.921809 -1.171075 -0.276831 1.718531 2.145657 0.196762 -8.590265 1.253655 -0.117761 9.158036 0.033697 0.100280 4.593150 0.000000 0.000000 0.000000 1.817315 1.095598 -26.701726 12.486808 -20.530653 2.270097 17.406335 -11.566645 -12.241053 0.000000 0.000000 0.000000 -7.125000 0.000000 0.000000 -8.872574 42.617349 -0.526139 0.000000 0.000000 0.000000 -0.135071 1.426978 22.425792 -13.826093 -22.485609 -2.761284 -19.046734 4.334026 7.241125 0.000000 0.000000 0.000000 7.125000 0.000000 0.000000 6.608091 37.561522 1.216227
